<mxfile host="65bd71144e">
    <diagram id="k0nbtBAQ9G7xwQQl9tIo" name="Page-1">
        <mxGraphModel dx="2803" dy="1707" grid="1" gridSize="10" guides="1" tooltips="1" connect="1" arrows="1" fold="1" page="1" pageScale="1" pageWidth="1920" pageHeight="1200" math="0" shadow="0">
            <root>
                <mxCell id="0"/>
                <mxCell id="1" parent="0"/>
                <mxCell id="6" value="" style="edgeStyle=none;html=1;" parent="1" source="4" target="5" edge="1">
                    <mxGeometry relative="1" as="geometry"/>
                </mxCell>
                <mxCell id="4" value="开始" style="html=1;dashed=0;whitespace=wrap;shape=mxgraph.dfd.start;fillColor=#ffe6cc;strokeColor=#d79b00;" parent="1" vertex="1">
                    <mxGeometry x="-140" y="-530" width="80" height="30" as="geometry"/>
                </mxCell>
                <mxCell id="10" value="存在" style="edgeStyle=none;html=1;" parent="1" source="5" target="9" edge="1">
                    <mxGeometry relative="1" as="geometry"/>
                </mxCell>
                <mxCell id="38" value="不存在" style="edgeStyle=orthogonalEdgeStyle;html=1;exitX=1;exitY=0.5;exitDx=0;exitDy=0;entryX=0.5;entryY=0;entryDx=0;entryDy=0;" parent="1" source="5" target="15" edge="1">
                    <mxGeometry relative="1" as="geometry"/>
                </mxCell>
                <mxCell id="5" value="当前状态？" style="rhombus;whiteSpace=wrap;html=1;dashed=0;strokeColor=#d79b00;fillColor=#ffe6cc;" parent="1" vertex="1">
                    <mxGeometry x="-140" y="-445" width="80" height="80" as="geometry"/>
                </mxCell>
                <mxCell id="14" value="是" style="edgeStyle=none;html=1;entryX=0.5;entryY=0;entryDx=0;entryDy=0;entryPerimeter=0;" parent="1" source="9" target="50" edge="1">
                    <mxGeometry relative="1" as="geometry">
                        <mxPoint x="250" y="635" as="targetPoint"/>
                    </mxGeometry>
                </mxCell>
                <mxCell id="16" value="否" style="edgeStyle=none;html=1;" parent="1" source="9" target="15" edge="1">
                    <mxGeometry relative="1" as="geometry"/>
                </mxCell>
                <mxCell id="9" value="已注销？" style="rhombus;whiteSpace=wrap;html=1;dashed=0;strokeColor=#d79b00;fillColor=#ffe6cc;" parent="1" vertex="1">
                    <mxGeometry x="-140" y="-285" width="80" height="80" as="geometry"/>
                </mxCell>
                <mxCell id="95" value="" style="edgeStyle=none;html=1;" parent="1" source="15" target="94" edge="1">
                    <mxGeometry relative="1" as="geometry"/>
                </mxCell>
                <mxCell id="15" value="获取关联住院证" style="shape=process;whiteSpace=wrap;html=1;backgroundOutline=1;dashed=0;strokeColor=#d79b00;fillColor=#ffe6cc;" parent="1" vertex="1">
                    <mxGeometry y="-275" width="120" height="60" as="geometry"/>
                </mxCell>
                <mxCell id="126" value="" style="edgeStyle=orthogonalEdgeStyle;html=1;" parent="1" source="19" target="125" edge="1">
                    <mxGeometry relative="1" as="geometry"/>
                </mxCell>
                <mxCell id="19" value="获取住院实体" style="shape=process;whiteSpace=wrap;html=1;backgroundOutline=1;dashed=0;strokeColor=#d79b00;fillColor=#ffe6cc;" parent="1" vertex="1">
                    <mxGeometry x="360" y="-115" width="120" height="60" as="geometry"/>
                </mxCell>
                <mxCell id="28" value="1" style="edgeStyle=none;html=1;" parent="1" source="21" target="27" edge="1">
                    <mxGeometry relative="1" as="geometry"/>
                </mxCell>
                <mxCell id="104" value="0" style="edgeStyle=orthogonalEdgeStyle;html=1;" parent="1" source="21" target="103" edge="1">
                    <mxGeometry relative="1" as="geometry"/>
                </mxCell>
                <mxCell id="21" value="实体数量？" style="rhombus;whiteSpace=wrap;html=1;dashed=0;strokeColor=#d79b00;fillColor=#ffe6cc;" parent="1" vertex="1">
                    <mxGeometry x="380" y="305" width="80" height="80" as="geometry"/>
                </mxCell>
                <mxCell id="23" value="异常" style="shape=process;whiteSpace=wrap;html=1;backgroundOutline=1;dashed=0;strokeColor=#B20000;fillColor=#e51400;fontColor=#ffffff;" parent="1" vertex="1">
                    <mxGeometry x="200" y="25" width="120" height="60" as="geometry"/>
                </mxCell>
                <mxCell id="30" value="已结算" style="edgeStyle=none;html=1;entryX=1;entryY=0.5;entryDx=0;entryDy=0;entryPerimeter=0;" parent="1" source="27" target="50" edge="1">
                    <mxGeometry relative="1" as="geometry">
                        <mxPoint x="470" y="665" as="targetPoint"/>
                    </mxGeometry>
                </mxCell>
                <mxCell id="32" value="出科" style="edgeStyle=none;html=1;" parent="1" source="27" target="31" edge="1">
                    <mxGeometry relative="1" as="geometry"/>
                </mxCell>
                <mxCell id="35" value="在院" style="edgeStyle=orthogonalEdgeStyle;html=1;" parent="1" source="27" target="34" edge="1">
                    <mxGeometry relative="1" as="geometry"/>
                </mxCell>
                <mxCell id="27" value="状态？" style="rhombus;whiteSpace=wrap;html=1;dashed=0;strokeColor=#d79b00;fillColor=#ffe6cc;" parent="1" vertex="1">
                    <mxGeometry x="380" y="625" width="80" height="80" as="geometry"/>
                </mxCell>
                <mxCell id="37" value="&amp;lt;12小时" style="edgeStyle=orthogonalEdgeStyle;html=1;exitX=1;exitY=0.5;exitDx=0;exitDy=0;entryX=0.5;entryY=1;entryDx=0;entryDy=0;" parent="1" source="31" target="34" edge="1">
                    <mxGeometry relative="1" as="geometry"/>
                </mxCell>
                <mxCell id="31" value="时长" style="rhombus;whiteSpace=wrap;html=1;dashed=0;strokeColor=#d79b00;fillColor=#ffe6cc;" parent="1" vertex="1">
                    <mxGeometry x="380" y="785" width="80" height="80" as="geometry"/>
                </mxCell>
                <mxCell id="33" value="&amp;gt;=12小时" style="edgeStyle=orthogonalEdgeStyle;html=1;entryX=0.5;entryY=0.5;entryDx=0;entryDy=15;exitX=0;exitY=0.5;exitDx=0;exitDy=0;entryPerimeter=0;" parent="1" source="31" target="50" edge="1">
                    <mxGeometry relative="1" as="geometry">
                        <mxPoint x="660" y="850" as="sourcePoint"/>
                        <mxPoint x="410" y="695" as="targetPoint"/>
                    </mxGeometry>
                </mxCell>
                <mxCell id="52" value="" style="edgeStyle=orthogonalEdgeStyle;html=1;" parent="1" source="34" target="51" edge="1">
                    <mxGeometry relative="1" as="geometry"/>
                </mxCell>
                <mxCell id="34" value="查最新核酸记录" style="shape=process;whiteSpace=wrap;html=1;backgroundOutline=1;dashed=0;strokeColor=#d79b00;fillColor=#ffe6cc;" parent="1" vertex="1">
                    <mxGeometry x="920" y="635" width="120" height="60" as="geometry"/>
                </mxCell>
                <mxCell id="48" value="是" style="edgeStyle=orthogonalEdgeStyle;html=1;exitX=0.5;exitY=1;exitDx=0;exitDy=0;" parent="1" source="41" target="34" edge="1">
                    <mxGeometry relative="1" as="geometry"/>
                </mxCell>
                <mxCell id="110" value="否" style="edgeStyle=orthogonalEdgeStyle;html=1;exitX=0.5;exitY=0;exitDx=0;exitDy=0;entryX=0.5;entryY=0.5;entryDx=0;entryDy=15;entryPerimeter=0;" parent="1" source="41" target="46" edge="1">
                    <mxGeometry relative="1" as="geometry"/>
                </mxCell>
                <mxCell id="41" value="最新住院证？" style="rhombus;whiteSpace=wrap;html=1;dashed=0;strokeColor=#d79b00;fillColor=#ffe6cc;" parent="1" vertex="1">
                    <mxGeometry x="940" y="305" width="80" height="80" as="geometry"/>
                </mxCell>
                <mxCell id="46" value="状态：注销" style="html=1;dashed=0;whitespace=wrap;shape=mxgraph.dfd.start;fillColor=#ffe6cc;strokeColor=#d79b00;" parent="1" vertex="1">
                    <mxGeometry x="940" y="-260" width="80" height="30" as="geometry"/>
                </mxCell>
                <mxCell id="50" value="&lt;span&gt;状态：注销&lt;/span&gt;" style="html=1;dashed=0;whitespace=wrap;shape=mxgraph.dfd.start;fillColor=#ffe6cc;strokeColor=#d79b00;" parent="1" vertex="1">
                    <mxGeometry x="-140" y="650" width="80" height="30" as="geometry"/>
                </mxCell>
                <mxCell id="54" value="是" style="edgeStyle=orthogonalEdgeStyle;html=1;" parent="1" source="51" target="53" edge="1">
                    <mxGeometry relative="1" as="geometry"/>
                </mxCell>
                <mxCell id="56" value="否" style="edgeStyle=orthogonalEdgeStyle;html=1;" parent="1" source="51" target="55" edge="1">
                    <mxGeometry relative="1" as="geometry"/>
                </mxCell>
                <mxCell id="51" value="14/2&lt;br&gt;日内阴性？" style="rhombus;whiteSpace=wrap;html=1;dashed=0;strokeColor=#d79b00;fillColor=#ffe6cc;" parent="1" vertex="1">
                    <mxGeometry x="1100" y="625" width="80" height="80" as="geometry"/>
                </mxCell>
                <mxCell id="53" value="状态：生效中" style="html=1;dashed=0;whitespace=wrap;shape=mxgraph.dfd.start;fillColor=#ffe6cc;strokeColor=#d79b00;" parent="1" vertex="1">
                    <mxGeometry x="1100" y="490" width="80" height="30" as="geometry"/>
                </mxCell>
                <mxCell id="58" value="" style="edgeStyle=orthogonalEdgeStyle;html=1;" parent="1" source="55" target="57" edge="1">
                    <mxGeometry relative="1" as="geometry"/>
                </mxCell>
                <mxCell id="55" value="查最新院外报告" style="shape=process;whiteSpace=wrap;html=1;backgroundOutline=1;dashed=0;strokeColor=#d79b00;fillColor=#ffe6cc;" parent="1" vertex="1">
                    <mxGeometry x="1080" y="795" width="120" height="60" as="geometry"/>
                </mxCell>
                <mxCell id="60" value="是" style="edgeStyle=orthogonalEdgeStyle;html=1;" parent="1" source="57" target="59" edge="1">
                    <mxGeometry relative="1" as="geometry"/>
                </mxCell>
                <mxCell id="62" value="否" style="edgeStyle=orthogonalEdgeStyle;html=1;" parent="1" source="57" target="61" edge="1">
                    <mxGeometry relative="1" as="geometry"/>
                </mxCell>
                <mxCell id="57" value="14/2&lt;br&gt;日内阴性？" style="rhombus;whiteSpace=wrap;html=1;dashed=0;strokeColor=#d79b00;fillColor=#ffe6cc;" parent="1" vertex="1">
                    <mxGeometry x="1100" y="925" width="80" height="80" as="geometry"/>
                </mxCell>
                <mxCell id="59" value="状态：生效中" style="html=1;dashed=0;whitespace=wrap;shape=mxgraph.dfd.start;fillColor=#ffe6cc;strokeColor=#d79b00;" parent="1" vertex="1">
                    <mxGeometry x="1280" y="950" width="80" height="30" as="geometry"/>
                </mxCell>
                <mxCell id="64" value="" style="edgeStyle=orthogonalEdgeStyle;html=1;" parent="1" source="61" target="63" edge="1">
                    <mxGeometry relative="1" as="geometry"/>
                </mxCell>
                <mxCell id="61" value="查陪护核酸划价" style="shape=process;whiteSpace=wrap;html=1;backgroundOutline=1;dashed=0;strokeColor=#d79b00;fillColor=#ffe6cc;" parent="1" vertex="1">
                    <mxGeometry x="920" y="935" width="120" height="60" as="geometry"/>
                </mxCell>
                <mxCell id="66" value="有" style="edgeStyle=orthogonalEdgeStyle;html=1;entryX=0.5;entryY=0.5;entryDx=0;entryDy=-15;entryPerimeter=0;" parent="1" source="63" target="69" edge="1">
                    <mxGeometry relative="1" as="geometry">
                        <mxPoint x="780" y="1085" as="targetPoint"/>
                    </mxGeometry>
                </mxCell>
                <mxCell id="71" value="无" style="edgeStyle=orthogonalEdgeStyle;html=1;" parent="1" source="63" target="70" edge="1">
                    <mxGeometry relative="1" as="geometry"/>
                </mxCell>
                <mxCell id="63" value="14/2&lt;br&gt;日内有效？" style="rhombus;whiteSpace=wrap;html=1;dashed=0;strokeColor=#d79b00;fillColor=#ffe6cc;" parent="1" vertex="1">
                    <mxGeometry x="740" y="925" width="80" height="80" as="geometry"/>
                </mxCell>
                <mxCell id="69" value="状态：等待院内结果" style="html=1;dashed=0;whitespace=wrap;shape=mxgraph.dfd.start;fillColor=#ffe6cc;strokeColor=#d79b00;" parent="1" vertex="1">
                    <mxGeometry x="720" y="1090" width="120" height="30" as="geometry"/>
                </mxCell>
                <mxCell id="73" value="" style="edgeStyle=orthogonalEdgeStyle;html=1;" parent="1" source="70" target="72" edge="1">
                    <mxGeometry relative="1" as="geometry"/>
                </mxCell>
                <mxCell id="70" value="查院外待审附件" style="shape=process;whiteSpace=wrap;html=1;backgroundOutline=1;dashed=0;strokeColor=#d79b00;fillColor=#ffe6cc;" parent="1" vertex="1">
                    <mxGeometry x="560" y="935" width="120" height="60" as="geometry"/>
                </mxCell>
                <mxCell id="79" value="有" style="edgeStyle=orthogonalEdgeStyle;html=1;" parent="1" source="72" target="78" edge="1">
                    <mxGeometry relative="1" as="geometry"/>
                </mxCell>
                <mxCell id="93" value="无" style="edgeStyle=orthogonalEdgeStyle;html=1;" parent="1" source="72" target="92" edge="1">
                    <mxGeometry relative="1" as="geometry"/>
                </mxCell>
                <mxCell id="72" value="7日内有效？" style="rhombus;whiteSpace=wrap;html=1;dashed=0;strokeColor=#d79b00;fillColor=#ffe6cc;" parent="1" vertex="1">
                    <mxGeometry x="380" y="925" width="80" height="80" as="geometry"/>
                </mxCell>
                <mxCell id="78" value="状态：等待院外审核" style="html=1;dashed=0;whitespace=wrap;shape=mxgraph.dfd.start;fillColor=#ffe6cc;strokeColor=#d79b00;" parent="1" vertex="1">
                    <mxGeometry x="200" y="950" width="120" height="30" as="geometry"/>
                </mxCell>
                <mxCell id="92" value="状态：无核酸检测结果" style="html=1;dashed=0;whitespace=wrap;shape=mxgraph.dfd.start;fillColor=#ffe6cc;strokeColor=#d79b00;" parent="1" vertex="1">
                    <mxGeometry x="355" y="1090" width="130" height="30" as="geometry"/>
                </mxCell>
                <mxCell id="96" value="否" style="edgeStyle=none;html=1;" parent="1" source="94" target="23" edge="1">
                    <mxGeometry relative="1" as="geometry"/>
                </mxCell>
                <mxCell id="97" value="是" style="edgeStyle=orthogonalEdgeStyle;html=1;exitX=1;exitY=0.5;exitDx=0;exitDy=0;entryX=0;entryY=0.5;entryDx=0;entryDy=0;" parent="1" source="94" target="100" edge="1">
                    <mxGeometry relative="1" as="geometry"/>
                </mxCell>
                <mxCell id="94" value="存在？" style="rhombus;whiteSpace=wrap;html=1;dashed=0;strokeColor=#d79b00;fillColor=#ffe6cc;" parent="1" vertex="1">
                    <mxGeometry x="220" y="-285" width="80" height="80" as="geometry"/>
                </mxCell>
                <mxCell id="101" value="是" style="edgeStyle=orthogonalEdgeStyle;html=1;" parent="1" source="100" target="19" edge="1">
                    <mxGeometry relative="1" as="geometry"/>
                </mxCell>
                <mxCell id="102" value="否" style="edgeStyle=orthogonalEdgeStyle;html=1;exitX=1;exitY=0.5;exitDx=0;exitDy=0;entryX=0;entryY=0.5;entryDx=0;entryDy=0;entryPerimeter=0;" parent="1" source="100" target="46" edge="1">
                    <mxGeometry relative="1" as="geometry"/>
                </mxCell>
                <mxCell id="100" value="有效？" style="rhombus;whiteSpace=wrap;html=1;dashed=0;strokeColor=#d79b00;fillColor=#ffe6cc;" parent="1" vertex="1">
                    <mxGeometry x="380" y="-285" width="80" height="80" as="geometry"/>
                </mxCell>
                <mxCell id="106" value="" style="edgeStyle=orthogonalEdgeStyle;html=1;" parent="1" source="103" target="41" edge="1">
                    <mxGeometry relative="1" as="geometry"/>
                </mxCell>
                <mxCell id="103" value="查询最新住院证" style="shape=process;whiteSpace=wrap;html=1;backgroundOutline=1;dashed=0;strokeColor=#d79b00;fillColor=#ffe6cc;" parent="1" vertex="1">
                    <mxGeometry x="710" y="315" width="140" height="60" as="geometry"/>
                </mxCell>
                <mxCell id="107" value="&lt;span&gt;弱陪护，患者未入院&lt;/span&gt;" style="shape=singleArrow;whiteSpace=wrap;html=1;arrowWidth=0.4;arrowSize=0.4;dashed=0;strokeColor=#d79b00;fillColor=#ffe6cc;" parent="1" vertex="1">
                    <mxGeometry x="520" y="290" width="130" height="45" as="geometry"/>
                </mxCell>
                <mxCell id="109" value="&lt;span&gt;强陪护，患者已入院&lt;/span&gt;" style="shape=singleArrow;whiteSpace=wrap;html=1;arrowWidth=0.4;arrowSize=0.4;dashed=0;strokeColor=#d79b00;fillColor=#ffe6cc;direction=south;horizontal=0;verticalAlign=middle;" parent="1" vertex="1">
                    <mxGeometry x="370" y="440" width="45" height="130" as="geometry"/>
                </mxCell>
                <mxCell id="120" value="" style="edgeStyle=orthogonalEdgeStyle;html=1;exitX=0.5;exitY=1;exitDx=0;exitDy=0;entryX=0.5;entryY=0;entryDx=0;entryDy=0;" parent="1" source="111" target="21" edge="1">
                    <mxGeometry relative="1" as="geometry">
                        <mxPoint x="330" y="290" as="targetPoint"/>
                    </mxGeometry>
                </mxCell>
                <mxCell id="111" value="过滤出院记录" style="shape=process;whiteSpace=wrap;html=1;backgroundOutline=1;dashed=0;strokeColor=#d79b00;fillColor=#ffe6cc;" parent="1" vertex="1">
                    <mxGeometry x="360" y="170" width="120" height="60" as="geometry"/>
                </mxCell>
                <mxCell id="127" value="&amp;gt;=2" style="edgeStyle=orthogonalEdgeStyle;html=1;exitX=0;exitY=0.5;exitDx=0;exitDy=0;" parent="1" source="21" target="23" edge="1">
                    <mxGeometry relative="1" as="geometry"/>
                </mxCell>
                <mxCell id="128" value="否" style="edgeStyle=orthogonalEdgeStyle;html=1;" parent="1" source="125" target="111" edge="1">
                    <mxGeometry relative="1" as="geometry"/>
                </mxCell>
                <mxCell id="125" value="数量&amp;gt;=2" style="rhombus;whiteSpace=wrap;html=1;dashed=0;strokeColor=#d79b00;fillColor=#ffe6cc;" parent="1" vertex="1">
                    <mxGeometry x="380" y="15" width="80" height="80" as="geometry"/>
                </mxCell>
            </root>
        </mxGraphModel>
    </diagram>
</mxfile>